# xmcd
#
# Track frame offsets:
#	150
#	12770
#	25165
#	34940
#	44852
#	56226
#	66307
#	76377
#	87417
#	98920
#	109598
#	120041
#	130185
#	141281
#	151709
#	165497
#
# Disc length: 2331 seconds
#
# Revision: 1
# Processed by: cddbd v1.4PL0 Copyright (c) Steve Scherf et al.
# Submitted via: audiograbber 1.82.02
#
DISCID=cd091910
DTITLE=Various Artist - THE GREAT COUNTRY SUPERSTARS
DYEAR=1900
DGENRE=
TTITLE0=FOLSOM  PRISON  BLUES - Johnny Cash
TTITLE1=I  WALK  THE  LINE - Johnny Cash
TTITLE2=ROCK  ISLAND  LINE - Johnny Cash
TTITLE3=BALLAD  OF  A  TEENAGE  QUEEN - Johnny Cash
TTITLE4=BIG  RIVER - Johnny Cash
TTITLE5=HEY  PORTER - Johnny Cash
TTITLE6=GET  RHYTHM - Johnny Cash
TTITLE7=CRY,  CRY,  CRY - Johnny Cash
TTITLE8=WALKING  AFTER  MIDNIGHT - Johnny Cash
TTITLE9=HONKY  TONK  MERRY-GO-ROUND - Johnny Cash
TTITLE10=LOVESICK  BLUES - Johnny Cash
TTITLE11=THREE  CIGARETTES  IN  AN  ASHTRAY - Johnny Cash
TTITLE12=STRANGER  IN  MY  ARMS - Johnny Cash
TTITLE13=I  LOVE  YOU  HONEY - Johnny Cash
TTITLE14=A  CHURCH, A COURTROOM  AND  THEN - Johnny Cash
TTITLE15=I'M  MOVING  ON - Johnny Cash
EXTD=
EXTT0=
EXTT1=
EXTT2=
EXTT3=
EXTT4=
EXTT5=
EXTT6=
EXTT7=
EXTT8=
EXTT9=
EXTT10=
EXTT11=
EXTT12=
EXTT13=
EXTT14=
EXTT15=
PLAYORDER=
